<?xml version="1.0" encoding="utf-8"?>
<!-- Generator: Adobe Illustrator 19.0.0, SVG Export Plug-In . SVG Version: 6.00 Build 0)  -->
<svg version="1.1" id="layer" xmlns="http://www.w3.org/2000/svg" xmlns:xlink="http://www.w3.org/1999/xlink" x="0px" y="0px"
	 viewBox="-153 -46 652 652" style="enable-background:new -153 -46 652 652;" xml:space="preserve">
<style type="text/css">
	.st0{fill:#E22D3E;}
	.st1{fill:#FFE900;}
</style>
<path id="XMLID_1_" class="st0" d="M352.6,192.8c-51.9-5-141.2,16.2-214.9,32.4c-59,13-107.1,21.1-139.3,19.9
	c-18.1-1.2-35.9-6.4-50.1-18c2.2,5.6,13.2,21.4,17.9,23.1c-18.8,1.5-38.2,3.7-56.9-0.3c-14.9-3.2-31.4-8.6-43.2-19.6
	c9.1,16.9,23,32.6,38.3,44.1c27.4,20.6,65.5,20,96.8,9.9c0.6-0.2,6.9-2,10.3-2c8,0.3,13.9,5.9,9.3,19c-3.9,9.8-11.7,17.5-20.8,17.7
	c-12.1,0-12.9-9.6-26.7-9.1c-24.1-0.6-39.6,10-72-8.1c6.6,6.5,44.6,48.2,126,56.8c20.8,2.2,44,0.4,54.9-0.8
	c70.6-7.4,125.7-31.4,174.3-52.6c41.2-18.6,90.7-37.9,127.7-39.9c31.1-2.5,55.2,7.5,64.5,26.8c4.2,8.6,5.2,18.5,3,28.7
	C482.9,276.4,469.3,201.7,352.6,192.8"/>
<path id="XMLID_2_" class="st1" d="M439.5,261.4h3.9l-0.1,0.6l-0.3,0.3h-1.1l-0.9,5h-1.1l0.9-5h-1.4L439.5,261.4z M446.4,266.5
	l1.5-3.1h0.1l-0.4,3.9h1.1l0.1-0.5l0.4-5.4h-1.3l-1.6,3.3h-0.1l-0.5-3.3h-1.3l-1.5,5.4l-0.1,0.5h1.1l1-3.9h0.1l0.4,3.1H446.4z
	 M128.8,242c16.9,5.4,19.4,36.2,18.5,46.6c-0.9,10-1,17.7-7,33.4c-1.8,4.1-3.1,10.7,7,7.5c14.5-4.7,28.9-22,31.8-45.4
	c0,0,0.1-0.7,0,0c-3.8,10.6-10,12.1-12.1,12c-2.5-0.1-1.4-2.8-1.2-4.1c0.6-2.8,1.6-13.2,1.6-15.2c0-2.1,2-3.1,2-3.1
	c14.2-7.2,10.9-19.3,10.9-19.3c-3.3,4-12.9,5.7-14.4,5.7c-0.7,0-1.5-0.3-2.1-1.8l0,0C158.4,246.2,144.9,237.6,128.8,242
	 M117.1,262.8c4.2-0.9,6.5,9.4,6.1,26c-0.4,16.6-0.9,32-6.9,33.3c-6,1.2-7.2-13.5-6.7-30.1C110.2,275.5,112.7,263.8,117.1,262.8
	 M141,284.7c0.6-24.6-10.3-40.2-24-36.5c-14.5,4-23.8,21.7-24.8,46.8c-2.2,18.1,6.7,44.8,23.6,42C133.7,333,140.3,309.4,141,284.7
	 M111.9,239.4c-22.1,4.9-30.9,6.1-43.9,8.4c0,0,2.6,5.8,2,20.9c-0.5,14.8-3.6,22-6.8,22c-2.7,0-5.7-7.3-5.7-21.2
	c0-15.2,3.5-20.7,3.5-20.7c-28.1,4.2-41.6,5.3-61,4.7c13.5,5.6,43.1,14.4,39.5,48.1c-3.3,30.2-29,44.8-32,45.2
	c22.8,4.5,40.9,4.2,50.8,3.9c0,0-2.8-9.5-2.5-22.5c0.3-9.8,3.9-20.9,7.1-21.4c4.3-0.6,6.1,9.2,5.6,20.9c-0.5,14.2-3.1,22.6-3.1,22.6
	c8.9-0.3,27-2.5,43.6-5.1c-25.4-11.4-23.3-45.8-23-50.7C87.3,271,97.8,248.3,111.9,239.4 M162.6,228.5c5.6-1.2,31.7-6.9,37.8-8.2
	c2.9,1.6,9.8,6.6,13.1,19.4c3.5,13.9,0,27.6,0,27.6s4.4-3.4,7.8-9.8c4.4-8.2,4.8-15.7,4.8-15.7s3.7,1.3,7.4,6.6
	c4,5.6,3.4,10.5,3.4,10.5s5.6-9.4,4.4-20.3c-1.8-16-11.4-21.7-15.8-23.6c4.1-0.8,22.4-4.3,24.7-4.7c2,2.3,5.8,7.8,8.9,17.3
	c5.8,18.4-1.3,33.8-7,46.4c-6.8,14.9-2.3,24.8-2.3,24.8l-14.5,6.5c0,0-4.4-2.6-8.2-12.5c-3.9-10-2.6-15.4-2.6-15.4s-5.1,3.8-8.6,17
	c-3.3,12.2-0.6,19.1-0.6,19.1s-9.4,3.8-19,7.4c-8.8,3.4-17.2,6.2-17.2,6.2c3.9-4.9,16.8-23.8,15.4-55.1
	C192.8,237.8,168.1,229.8,162.6,228.5 M291.3,203.8c5.4-0.7,20.9-2.2,26.7-2.6c-24.8,25.3-13.7,64.6-0.8,70.4
	c-10.1,3.5-19.7,6.9-26.7,9.9c3.8-9.6,0-30.8-4-29.5c-4.6,1.5-7,19.5-3.4,32.5c-7.6,3.1-21.2,9-29,12.5
	c13.2-25.5,24.1-61.1,0.9-87.5c6.7-1.2,21.9-3.6,27.2-4.4c-3,11.8-0.6,31.4,3.5,30.4C290.7,234.3,292.7,216.7,291.3,203.8
	 M430.4,261.8c3.1-0.5,5.2-2.5,6-5.6c1.5-5.6,0.7-9.6-5.2-14.9c-4.4-3.9-8.7-7.2-6.9-9.4c2.7-3.4,10.2,5.1,11.4,8.1
	c0.5-3-0.3-5.8-1.4-8.3c-1.9-4.4-6.1-8.8-11.3-9.8c-1.4-0.3-4.9-0.9-7.8,1.6c-2,1.7-5.6,8.2,3,17.7c1.9,2.1,4.2,4.4,5.5,5.8
	c1.3,1.4,1.8,2.7,1.6,3.8c-0.1,0.7-0.7,1.2-1.4,1.3c-2.6,0.4-7.3-3.4-8.8-6.6l-0.2,12.4c3.1,1.2,5.7,2.2,9.3,3.3
	C426.3,261.9,428.5,262.1,430.4,261.8 M324.4,234.4c0,0,1.1-2.8,4.2-5.5c3-2.7,4.5-4.1,6.8-7c2.4-2.9,4.5-7.7,1.8-10.2
	c-2.9-2.5-7.2,1.3-10.1,8.3C324.2,227,324.4,234.4,324.4,234.4 M329.6,239.9c-5.6,5.2-4.1,12.7,1.8,12.4
	c5.7-0.4,11.9-11.5,11.9-11.5s0.6,24.2-16.2,27.5c-9.6,1.9-14.6-6.2-17.1-14.9c-3-10.2-1-31.1,9.4-43.2c9.5-11.1,19.4-11.3,24.8-7.9
	c5.8,3.6,5.8,9.2,2.9,17.4C344.2,227.9,336.4,233.5,329.6,239.9 M363.5,219.7c-2.3,5.7-2.1,11.7-2.1,11.7s0.9-2.3,3.4-4.5
	c2.4-2.2,3.6-3.4,5.5-5.8c1.9-2.4,3.6-6.3,1.4-8.3C369.3,210.8,365.8,213.9,363.5,219.7 M367.4,245.7c6-0.5,13.2-9.2,13.2-9.2
	s-3.4,19.1-16.1,22.5c-8.4,2.2-12.8-3.2-15.2-11.6c-2.4-8.3-0.6-25.6,7.8-35.5c7.6-9.1,15.8-9.5,20.2-6.7c4.7,2.9,4.8,7.5,2.5,14.1
	c-2.3,6.7-8.6,11.3-14.1,16.5C361.1,240.2,361.7,246.1,367.4,245.7 M385.7,206.3c4.1,14.4,1.2,39.9-7.8,50.8
	c11.2-1.1,21.6-1.3,31.4,0.3l0.6-20.1c-3.7,9.1-24.3,20.7-7.9-26.2C397.9,209.7,393.3,208,385.7,206.3"/>
</svg>
